<svg width="647" height="150" viewBox="0 0 647 150" fill="none" xmlns="http://www.w3.org/2000/svg">
<path d="M492.643 89.1035H495.992V0H535.908V111.766H461.483L456.584 93.4814H434.185L423.63 111.766H392.724L440.366 0H466.891L492.643 89.1035ZM614.195 0C637.115 9.27087 647.93 49.7025 620.89 67.4717L646.464 111.766H606.469L582.262 69.5312H579.944V111.766H546.466V0H614.195ZM442.169 71.0762H456.363L450.152 47.8994L442.169 71.0762ZM580.716 35.2812V50.7324H597.456C602.864 47.6421 602.606 37.8565 597.456 35.2812H580.716Z" fill="#00AEEF"/>
<path d="M184.763 0L200.472 50.4746L221.846 0H246.568L266.655 91.4209V0H344.685C361.939 10.0434 372.755 48.1569 344.685 68.7588L390.091 144.729H350.351L306 68.7588H303.875V113.568H236.782L225.741 72.3643L210 113.568H191.973L179.354 72.3643L166.993 113.568H133L158.752 0H184.763ZM303.224 35.2812V50.7324H319.963C325.371 47.6421 325.113 37.8568 319.963 35.2812H303.224Z" fill="#00AEEF"/>
<path d="M0 0H161.21V14.9364H14.4214L0 0Z" fill="#00AEEF"/>
<path d="M357.474 0H452.212V14.9364H367.032C367.032 14.9364 366 11 363.654 6.95315C361.308 2.9063 357.474 0 357.474 0Z" fill="#00AEEF"/>
<path d="M19.8293 22.6621H161.21V37.5985H33.7356L19.8293 22.6621Z" fill="#00AEEF"/>
<path d="M369.062 22.6621L452.212 22.6621V37.5985H370.062C370.062 37.5985 370.938 35 370.5 30C370.062 25 369.062 22.6621 369.062 22.6621Z" fill="#00AEEF"/>
<path d="M37.341 45.7382L161.21 45.3242V60.2606H48.9296L37.341 45.7382Z" fill="#00AEEF"/>
<path d="M369.032 45.7382L439.079 45.3242V60.2606L362.336 60.2606C362.336 60.2606 365.23 57.1703 366.714 53.565C368.199 49.9597 369.032 45.7382 369.032 45.7382Z" fill="#00AEEF"/>
<path d="M54.5951 70.0466H161.21V84.983H66.6988L54.5951 70.0466Z" fill="#00AEEF"/>
<path d="M354.353 70.0466H429.808V84.983H366.457L354.353 70.0466Z" fill="#00AEEF"/>
<path d="M403.947 137.672L408.363 137.243C408.628 138.725 409.165 139.814 409.973 140.509C410.79 141.204 411.889 141.551 413.269 141.551C414.731 141.551 415.83 141.245 416.566 140.631C417.312 140.008 417.685 139.282 417.685 138.454C417.685 137.923 417.527 137.473 417.21 137.105C416.903 136.727 416.361 136.4 415.584 136.124C415.053 135.94 413.842 135.612 411.95 135.142C409.518 134.539 407.811 133.798 406.829 132.919C405.449 131.682 404.759 130.174 404.759 128.396C404.759 127.251 405.081 126.183 405.725 125.191C406.379 124.189 407.315 123.428 408.531 122.906C409.758 122.385 411.235 122.125 412.962 122.125C415.784 122.125 417.905 122.743 419.326 123.98C420.757 125.217 421.508 126.868 421.58 128.932L417.041 129.132C416.847 127.977 416.428 127.149 415.784 126.648C415.15 126.137 414.194 125.881 412.916 125.881C411.598 125.881 410.565 126.152 409.819 126.694C409.339 127.041 409.099 127.506 409.099 128.089C409.099 128.621 409.323 129.075 409.773 129.454C410.346 129.934 411.736 130.435 413.944 130.956C416.152 131.478 417.782 132.019 418.835 132.582C419.898 133.134 420.726 133.895 421.319 134.866C421.922 135.827 422.224 137.018 422.224 138.439C422.224 139.727 421.866 140.933 421.15 142.057C420.435 143.182 419.423 144.02 418.114 144.572C416.806 145.114 415.176 145.385 413.223 145.385C410.381 145.385 408.199 144.73 406.676 143.422C405.153 142.103 404.243 140.187 403.947 137.672Z" fill="#00AEEF"/>
<path d="M426.042 144.986V122.508H442.709V126.31H430.58V131.294H441.865V135.081H430.58V141.199H443.138V144.986H426.042Z" fill="#00AEEF"/>
<path d="M447.002 144.986V122.508H456.554C458.956 122.508 460.699 122.712 461.783 123.121C462.877 123.52 463.75 124.235 464.405 125.268C465.059 126.3 465.386 127.481 465.386 128.81C465.386 130.496 464.89 131.892 463.899 132.996C462.907 134.089 461.425 134.779 459.452 135.066C460.433 135.638 461.241 136.267 461.875 136.952C462.519 137.636 463.383 138.853 464.466 140.601L467.211 144.986H461.783L458.501 140.095C457.336 138.347 456.539 137.248 456.11 136.798C455.68 136.338 455.225 136.026 454.745 135.863C454.264 135.689 453.503 135.602 452.46 135.602H451.54V144.986H447.002ZM451.54 132.014H454.898C457.076 132.014 458.435 131.922 458.977 131.738C459.519 131.554 459.943 131.237 460.249 130.788C460.556 130.338 460.709 129.776 460.709 129.101C460.709 128.345 460.505 127.736 460.096 127.276C459.697 126.806 459.13 126.51 458.394 126.387C458.026 126.336 456.922 126.31 455.082 126.31H451.54V132.014Z" fill="#00AEEF"/>
<path d="M474.831 144.986L466.797 122.508H471.719L477.407 139.144L482.912 122.508H487.726L479.676 144.986H474.831Z" fill="#00AEEF"/>
<path d="M489.904 144.986V122.508H494.442V144.986H489.904Z" fill="#00AEEF"/>
<path d="M513.164 136.722L517.564 138.117C516.89 140.57 515.765 142.395 514.191 143.591C512.627 144.776 510.639 145.369 508.226 145.369C505.242 145.369 502.788 144.352 500.867 142.318C498.945 140.274 497.984 137.483 497.984 133.946C497.984 130.205 498.95 127.302 500.882 125.237C502.814 123.162 505.354 122.125 508.502 122.125C511.252 122.125 513.486 122.937 515.203 124.562C516.225 125.523 516.992 126.903 517.503 128.702L513.01 129.776C512.745 128.61 512.187 127.69 511.339 127.016C510.501 126.341 509.479 126.004 508.272 126.004C506.606 126.004 505.252 126.602 504.209 127.798C503.177 128.994 502.661 130.931 502.661 133.609C502.661 136.451 503.172 138.475 504.194 139.681C505.216 140.887 506.545 141.49 508.18 141.49C509.387 141.49 510.424 141.107 511.293 140.34C512.162 139.573 512.785 138.367 513.164 136.722Z" fill="#00AEEF"/>
<path d="M521.474 144.986V122.508H538.141V126.31H526.013V131.294H537.298V135.081H526.013V141.199H538.57V144.986H521.474Z" fill="#00AEEF"/>
<path d="M541.269 137.672L545.685 137.243C545.951 138.725 546.487 139.814 547.295 140.509C548.113 141.204 549.212 141.551 550.592 141.551C552.053 141.551 553.152 141.245 553.888 140.631C554.634 140.008 555.007 139.282 555.007 138.454C555.007 137.923 554.849 137.473 554.532 137.105C554.225 136.727 553.684 136.4 552.907 136.124C552.375 135.94 551.164 135.612 549.273 135.142C546.84 134.539 545.133 133.798 544.152 132.919C542.772 131.682 542.082 130.174 542.082 128.396C542.082 127.251 542.404 126.183 543.048 125.191C543.702 124.189 544.637 123.428 545.854 122.906C547.08 122.385 548.557 122.125 550.285 122.125C553.106 122.125 555.227 122.743 556.648 123.98C558.079 125.217 558.83 126.868 558.902 128.932L554.363 129.132C554.169 127.977 553.75 127.149 553.106 126.648C552.472 126.137 551.517 125.881 550.239 125.881C548.92 125.881 547.888 126.152 547.142 126.694C546.661 127.041 546.421 127.506 546.421 128.089C546.421 128.621 546.646 129.075 547.096 129.454C547.668 129.934 549.058 130.435 551.266 130.956C553.474 131.478 555.105 132.019 556.157 132.582C557.221 133.134 558.048 133.895 558.641 134.866C559.244 135.827 559.546 137.018 559.546 138.439C559.546 139.727 559.188 140.933 558.473 142.057C557.757 143.182 556.745 144.02 555.437 144.572C554.128 145.114 552.498 145.385 550.546 145.385C547.704 145.385 545.521 144.73 543.998 143.422C542.475 142.103 541.566 140.187 541.269 137.672Z" fill="#00AEEF"/>
<path d="M563.226 140.677H567.535V143.759C567.535 145.006 567.427 145.988 567.213 146.703C566.998 147.429 566.589 148.078 565.986 148.651C565.393 149.223 564.637 149.673 563.717 150L562.873 148.221C563.742 147.935 564.361 147.542 564.729 147.041C565.097 146.54 565.291 145.855 565.311 144.986H563.226V140.677Z" fill="#00AEEF"/>
<path d="M580.966 144.986V122.692H585.505V141.199H596.79V144.986H580.966Z" fill="#00AEEF"/>
<path d="M600.163 144.986V122.692H604.702V141.199H615.987V144.986H600.163Z" fill="#00AEEF"/>
<path d="M633.62 136.722L638.02 138.117C637.346 140.57 636.221 142.395 634.647 143.591C633.083 144.776 631.095 145.369 628.683 145.369C625.698 145.369 623.244 144.352 621.323 142.318C619.401 140.274 618.44 137.483 618.44 133.946C618.44 130.205 619.406 127.302 621.338 125.237C623.27 123.162 625.81 122.125 628.959 122.125C631.708 122.125 633.942 122.937 635.659 124.562C636.681 125.523 637.448 126.903 637.959 128.702L633.466 129.776C633.201 128.61 632.644 127.69 631.795 127.016C630.957 126.341 629.935 126.004 628.729 126.004C627.062 126.004 625.708 126.602 624.665 127.798C623.633 128.994 623.117 130.931 623.117 133.609C623.117 136.451 623.628 138.475 624.65 139.681C625.672 140.887 627.001 141.49 628.637 141.49C629.843 141.49 630.88 141.107 631.749 140.34C632.618 139.573 633.242 138.367 633.62 136.722Z" fill="#00AEEF"/>
<ellipse cx="373.41" cy="103.782" rx="9.27087" ry="10.0434" fill="#00AEEF"/>
</svg>
